<?xml version="1.0" standalone="no"?>
<!DOCTYPE svg PUBLIC "-//W3C//DTD SVG 20010904//EN"
 "http://www.w3.org/TR/2001/REC-SVG-20010904/DTD/svg10.dtd">
<svg version="1.0" xmlns="http://www.w3.org/2000/svg"
 width="512.000000pt" height="512.000000pt" viewBox="0 0 512.000000 512.000000"
 preserveAspectRatio="xMidYMid meet">
<metadata>
Created by potrace 1.11, written by Peter Selinger 2001-2013
</metadata>
<g transform="translate(0.000000,512.000000) scale(0.100000,-0.100000)"
fill="#000000" stroke="none">
<path d="M3593 4992 c-1 -22 0 -24 9 -8 6 10 6 22 2 26 -5 5 -10 -3 -11 -18z"/>
<path d="M3701 4996 c-8 -10 -9 -16 -1 -21 6 -4 9 -1 8 7 -2 7 3 12 10 10 8
-1 11 2 7 8 -8 13 -10 13 -24 -4z"/>
<path d="M3516 4986 c4 -11 0 -14 -15 -11 -11 2 -24 -1 -27 -7 -5 -7 -2 -8 7
-3 8 4 5 -1 -6 -12 -11 -11 -21 -19 -23 -18 -1 1 -28 -24 -60 -56 -50 -52 -84
-76 -67 -50 3 5 2 12 -3 15 -4 2 -9 -7 -10 -21 -3 -39 -12 -46 -33 -27 -19 17
-20 17 -13 -1 6 -14 4 -16 -6 -10 -9 5 -11 4 -6 -4 4 -6 12 -8 18 -5 7 4 8 2
4 -4 -4 -7 -17 -17 -29 -24 -19 -10 -20 -9 -10 4 10 12 10 15 -1 15 -15 0 -15
-13 -2 -37 5 -8 6 -12 2 -9 -4 4 -28 -13 -53 -38 -35 -32 -49 -40 -56 -31 -6
9 -7 5 -4 -10 3 -13 3 -22 1 -19 -3 2 -18 -9 -34 -25 -25 -25 -33 -27 -51 -18
-11 7 -23 9 -26 7 -2 -3 5 -8 16 -12 12 -3 21 -10 21 -15 0 -14 -40 -32 -60
-27 -13 3 -17 0 -13 -9 3 -8 9 -11 14 -8 5 3 6 -2 3 -10 -3 -8 -14 -18 -24
-21 -10 -3 -21 -12 -24 -20 -3 -8 -10 -15 -16 -15 -7 0 -8 6 -1 18 7 14 6 19
-4 19 -7 0 -11 -6 -8 -14 4 -9 0 -11 -13 -7 -18 6 -18 6 0 -8 19 -15 19 -16
-8 -41 -22 -21 -28 -36 -31 -79 -4 -71 -4 -70 -15 -63 -6 3 -7 -1 -4 -9 3 -9
11 -13 18 -9 6 4 6 0 -2 -9 -10 -12 -10 -18 -1 -23 14 -9 -14 -27 -48 -31 -21
-2 -22 0 -11 13 11 14 10 15 -10 9 -12 -4 -22 -4 -22 1 0 4 -18 27 -40 51 -22
23 -40 47 -40 52 0 6 -7 10 -16 10 -11 0 -14 6 -10 23 3 12 3 16 0 10 -3 -7
-17 -13 -30 -13 -18 0 -23 4 -18 13 5 8 2 8 -9 -2 -13 -11 -17 -11 -17 -1 0 8
-3 10 -7 7 -3 -4 -13 -1 -21 6 -11 8 -14 8 -9 0 9 -14 -1 -43 -15 -43 -5 0 -6
6 -2 13 4 7 3 8 -2 4 -5 -5 -9 -16 -9 -25 0 -10 -7 -16 -17 -16 -10 1 -18 -2
-18 -7 0 -5 5 -9 10 -9 6 0 10 -5 10 -11 0 -6 -6 -9 -13 -6 -8 3 -20 1 -28 -5
-11 -8 -10 -9 4 -4 15 5 16 3 7 -14 -6 -11 -16 -20 -23 -20 -8 0 -8 3 1 9 11
7 11 9 -1 14 -16 6 -17 -9 -4 -30 5 -7 4 -13 -2 -13 -5 0 -13 5 -16 10 -3 6
-11 10 -18 10 -6 0 -2 -6 9 -14 10 -8 15 -18 11 -22 -4 -5 -12 -2 -17 6 -8 13
-10 12 -10 -2 0 -10 5 -18 11 -18 5 0 -2 -16 -17 -35 -15 -20 -29 -33 -32 -30
-3 2 -11 -3 -18 -13 -12 -16 -12 -16 -11 3 2 15 -3 19 -18 17 -11 -2 -17 -1
-13 3 3 3 14 8 25 9 10 2 17 6 16 9 -2 4 -3 13 -3 20 0 6 -5 4 -11 -5 -14 -25
-24 -23 -66 17 -20 19 -34 35 -30 35 5 0 20 -12 34 -27 20 -21 23 -23 15 -7
-6 12 -9 23 -7 26 5 5 -3 6 -45 10 -23 3 -25 9 -7 27 7 9 8 12 0 7 -14 -8 -43
3 -43 16 0 6 8 4 18 -3 13 -11 12 -8 -3 11 -29 36 -38 40 -53 28 -7 -6 -12 -7
-11 -2 4 21 -2 34 -15 34 -20 0 -29 17 -15 26 7 4 9 3 6 -2 -3 -5 3 -10 14
-10 19 0 19 1 4 12 -9 7 -22 11 -28 8 -20 -7 -36 10 -42 46 -3 19 -9 37 -12
40 -3 3 -3 -5 0 -17 6 -28 2 -29 -23 -5 -12 11 -18 27 -15 41 3 19 2 21 -10
11 -12 -10 -23 -4 -59 31 -25 23 -43 45 -41 49 3 4 -5 10 -16 13 -18 5 -20 11
-15 34 7 25 6 26 -6 10 -13 -18 -15 -17 -33 8 -11 15 -26 33 -32 40 -17 18
-16 26 1 19 18 -7 30 12 15 22 -7 4 -9 3 -5 -4 4 -7 -3 -10 -20 -9 -26 2 -48
27 -24 27 6 0 8 -6 4 -12 -4 -7 -3 -9 1 -5 5 4 10 14 11 23 2 14 0 14 -21 0
-21 -14 -24 -14 -29 0 -3 9 -4 20 -1 24 3 5 0 12 -6 16 -8 4 -9 3 -5 -4 14
-23 -5 -12 -40 23 -19 19 -32 40 -28 46 4 8 9 7 15 -2 5 -8 9 -9 9 -3 0 6 -7
17 -16 24 -12 11 -15 11 -12 0 2 -7 -3 -15 -9 -17 -7 -3 -13 2 -13 11 0 9 -3
15 -7 15 -26 -4 -43 3 -44 19 0 10 -3 12 -6 5 -2 -7 -9 -13 -14 -13 -6 0 -7 5
-3 12 4 6 -4 3 -17 -7 -14 -11 -33 -36 -44 -57 -10 -20 -22 -35 -27 -32 -5 3
-6 -7 -1 -23 4 -15 7 -35 7 -45 0 -10 7 -15 18 -13 10 2 16 0 13 -6 -4 -5 0
-9 7 -9 9 -1 7 -5 -4 -14 -10 -7 -18 -17 -18 -21 0 -4 7 -2 15 5 11 9 18 8 35
-8 21 -19 21 -21 3 -32 -16 -10 -16 -11 0 -6 21 7 47 -2 47 -16 0 -6 -6 -6
-14 1 -11 9 -16 9 -22 0 -4 -8 -3 -9 4 -5 7 4 12 3 12 -3 0 -5 -3 -11 -7 -14
-5 -2 -3 -3 3 -1 6 1 17 -3 24 -9 10 -9 11 -9 6 3 -7 13 -6 13 6 0 7 -8 22
-23 32 -33 19 -18 19 -19 0 -15 -10 2 -23 8 -27 13 -5 6 -7 4 -5 -4 2 -8 12
-15 22 -17 34 -5 48 -14 42 -29 -3 -8 -1 -15 5 -15 6 0 7 -6 3 -12 -5 -9 -2
-9 9 1 9 7 18 10 18 5 7 -55 7 -64 -3 -58 -7 4 -8 2 -4 -5 10 -15 29 -3 22 15
-9 24 8 14 37 -21 19 -23 24 -36 16 -41 -8 -5 -9 -3 -4 6 5 8 4 11 -3 6 -6 -4
-8 -14 -5 -22 5 -13 7 -13 14 -2 11 17 99 -80 91 -101 -3 -9 -1 -12 6 -7 12 7
38 -32 28 -42 -3 -3 -6 0 -6 6 0 7 -4 12 -8 12 -17 0 -8 -30 10 -36 19 -6 25
-24 8 -24 -5 0 -10 5 -10 10 0 6 -5 10 -11 10 -5 0 -8 -4 -5 -8 3 -5 -1 -9 -9
-9 -8 0 -15 3 -15 7 0 3 -10 6 -22 7 -42 2 -88 10 -95 16 -3 4 -1 7 5 7 6 0 9
7 5 17 -5 14 -8 13 -14 -5 -11 -29 -28 -28 -22 1 4 17 2 19 -5 8 -12 -17 -52
-25 -52 -12 0 5 -15 9 -32 8 -20 -1 -33 3 -33 10 0 6 -4 15 -9 20 -5 4 -6 3
-2 -4 3 -6 -2 -17 -11 -23 -17 -11 -17 -11 0 -6 11 3 15 2 12 -4 -3 -6 -10
-10 -15 -10 -5 0 -21 -5 -37 -12 -15 -6 -31 -12 -35 -13 -5 -2 -9 -3 -10 -4
-2 -2 -14 -5 -28 -7 -13 -3 -29 -9 -34 -14 -16 -16 -30 -11 -16 5 7 9 11 18 8
20 -3 3 -11 -6 -18 -20 -7 -14 -26 -27 -44 -31 -17 -3 -33 -10 -36 -15 -3 -5
-16 -10 -28 -12 -12 -2 -27 -8 -34 -15 -8 -8 -17 -8 -30 -1 -11 6 -22 8 -26 5
-3 -3 0 -6 8 -6 10 0 10 -3 0 -15 -7 -9 -19 -14 -27 -11 -7 3 -13 0 -13 -6 0
-6 -3 -8 -6 -5 -4 3 -16 1 -28 -5 -11 -7 -30 -13 -40 -15 -11 -2 -26 -8 -33
-15 -7 -6 -16 -8 -20 -4 -3 3 -2 6 4 6 6 0 18 12 28 28 14 22 10 20 -17 -9
-41 -43 -58 -50 -76 -32 -7 7 -18 13 -25 13 -6 0 -2 -6 9 -14 21 -16 16 -26
-15 -29 -11 -1 -21 -5 -21 -10 0 -4 -5 -5 -11 -2 -5 4 -19 -1 -30 -11 -10 -9
-19 -14 -19 -9 0 4 -8 1 -17 -6 -11 -10 -14 -10 -9 -1 11 18 -5 15 -19 -5 -7
-9 -21 -17 -31 -18 -11 0 -26 -5 -34 -10 -8 -5 -19 -10 -25 -11 -5 -1 -28 -9
-50 -17 -39 -14 -70 -13 -61 2 3 4 -1 8 -9 8 -20 0 -19 -13 1 -21 9 -4 14 -9
10 -13 -5 -5 -16 -8 -59 -12 -5 -1 -6 -5 -3 -10 10 -15 -25 -6 -35 10 -7 10
-8 7 -7 -11 2 -17 -2 -25 -12 -25 -8 0 -21 -4 -29 -9 -10 -7 -12 -3 -7 15 3
13 3 18 0 12 -3 -7 -13 -13 -22 -14 -11 0 -12 -2 -4 -6 6 -2 12 -9 12 -14 0
-6 -4 -8 -10 -4 -5 3 -19 0 -30 -7 -17 -11 -22 -11 -31 2 -9 13 -10 12 -5 -2
6 -20 -10 -34 -17 -16 -4 10 -6 10 -6 0 -1 -7 -7 -20 -15 -27 -14 -14 -10 -65
4 -65 5 0 12 -9 15 -20 4 -11 10 -18 15 -15 15 9 23 -17 9 -26 -9 -6 -4 -8 16
-5 l30 5 -25 -20 c-14 -12 -19 -18 -11 -14 7 4 18 1 23 -6 8 -11 8 -10 4 4 -4
12 -2 17 6 14 7 -2 12 -9 11 -15 -2 -7 4 -9 14 -5 11 4 14 3 9 -5 -4 -7 -2
-12 6 -12 14 0 98 -75 98 -87 0 -3 -11 4 -24 16 -19 18 -25 19 -29 8 -3 -9 1
-14 11 -13 9 0 16 -4 15 -11 -3 -12 15 -12 36 1 9 6 12 5 8 -1 -4 -6 5 -15 19
-22 15 -7 24 -17 21 -25 -4 -10 1 -12 16 -9 18 4 19 3 7 -6 -13 -9 -13 -11 3
-11 9 0 17 -5 17 -11 0 -5 4 -8 9 -4 5 3 12 1 15 -4 4 -5 1 -13 -5 -17 -8 -5
-9 -3 -4 7 5 8 4 10 0 6 -5 -4 -10 -14 -11 -22 -2 -11 2 -12 17 -2 16 10 21 9
28 -2 5 -8 7 -21 4 -30 -4 -13 -2 -13 6 1 10 15 15 13 48 -20 21 -20 40 -37
43 -37 13 0 41 -36 37 -48 -2 -7 -11 1 -20 18 -19 35 -23 28 -5 -10 13 -28 19
-30 36 -13 9 9 11 5 9 -18 -1 -16 -9 -35 -17 -42 -13 -11 -12 -11 7 -2 12 5
25 15 29 22 4 6 3 8 -3 5 -5 -3 -10 0 -10 8 0 21 10 19 25 -6 10 -16 10 -19 1
-13 -9 5 -10 2 -6 -10 4 -9 3 -15 -2 -12 -4 3 -17 -1 -27 -10 -18 -14 -18 -15
6 -8 l25 7 -20 -23 c-11 -13 -14 -20 -8 -16 8 4 13 1 13 -9 0 -10 -5 -13 -12
-9 -7 5 -8 3 -2 -7 4 -8 9 -24 10 -36 0 -15 -4 -20 -15 -16 -13 5 -14 3 -3 -8
6 -7 12 -27 12 -43 0 -21 -3 -27 -9 -18 -6 11 -9 9 -13 -6 -4 -13 -2 -19 6
-16 14 5 19 -33 5 -42 -6 -4 -5 -11 2 -21 10 -12 10 -16 -2 -24 -12 -7 -12 -9
1 -9 11 0 10 -3 -4 -11 -15 -9 -16 -13 -5 -20 11 -7 11 -14 -4 -41 -10 -18
-12 -25 -4 -16 13 17 15 3 8 -85 -1 -5 -5 -5 -11 -2 -5 3 -10 1 -10 -4 0 -6 8
-11 18 -11 10 0 13 -3 7 -8 -6 -4 -10 -26 -10 -50 1 -30 -3 -41 -12 -38 -7 3
-10 -1 -6 -9 3 -8 10 -12 17 -8 6 3 6 1 -1 -8 -7 -7 -13 -17 -13 -22 0 -4 6
-5 13 -1 10 6 10 4 0 -7 -7 -7 -13 -17 -13 -22 0 -4 6 -5 13 -1 9 6 9 4 1 -7
-6 -8 -10 -47 -10 -86 1 -75 -1 -81 -22 -63 -9 7 -9 7 -2 -2 6 -7 4 -23 -5
-45 -18 -43 -9 -43 10 0 l15 32 -2 -32 c-1 -18 -7 -33 -13 -33 -6 0 -7 -3 0
-8 6 -4 11 -14 13 -22 3 -10 -2 -9 -18 5 -16 14 -21 15 -18 5 2 -8 -3 -14 -10
-12 -8 1 -11 -2 -7 -9 5 -7 11 -7 17 -1 7 7 15 6 24 -3 19 -19 17 -28 -3 -20
-15 5 -16 4 -6 -6 16 -16 17 -33 1 -23 -6 4 -8 3 -4 -4 3 -5 0 -13 -6 -16 -7
-3 -2 -3 12 0 20 5 23 4 13 -6 -8 -9 -9 -19 -3 -31 6 -10 6 -20 1 -23 -5 -3
-7 -22 -5 -41 1 -19 -2 -35 -7 -35 -6 0 -7 5 -4 10 3 6 2 10 -4 10 -5 0 -13 9
-16 21 -4 11 -9 18 -12 15 -3 -3 4 -21 16 -41 11 -20 16 -33 9 -29 -8 5 -9 2
-5 -9 3 -10 2 -17 -4 -17 -6 0 -7 -5 -3 -12 4 -7 3 -8 -4 -4 -7 4 -12 2 -12
-3 0 -6 -5 -11 -12 -11 -6 0 -3 9 7 20 10 11 15 23 12 27 -4 3 -7 1 -7 -6 0
-7 -5 -9 -12 -5 -6 4 -8 3 -4 -4 3 -6 2 -13 -4 -17 -7 -4 -7 -12 0 -26 6 -10
7 -19 3 -19 -4 0 -19 -16 -32 -36 -19 -27 -30 -34 -45 -30 -21 5 -21 5 -2 -9
18 -13 15 -19 -6 -16 -4 0 -4 -7 -1 -16 4 -11 3 -14 -5 -9 -7 4 -12 1 -12 -9
0 -11 -5 -15 -14 -12 -11 4 -13 1 -9 -10 4 -9 -1 -21 -12 -29 -10 -8 -16 -14
-12 -14 4 0 3 -9 -3 -19 -6 -12 -17 -17 -29 -14 -10 3 -22 0 -25 -6 -4 -7 -1
-8 8 -5 23 9 20 -9 -4 -24 -11 -7 -20 -18 -20 -25 0 -6 7 -3 15 7 8 11 15 15
15 9 0 -14 -25 -34 -33 -26 -7 6 -11 -13 -7 -32 1 -5 -4 -4 -11 3 -7 6 -18 12
-23 12 -6 0 -5 -4 3 -9 21 -14 5 -44 -20 -38 -12 3 -18 3 -15 0 3 -4 0 -13 -7
-21 -10 -13 -9 -14 12 -2 l24 13 -22 -29 c-12 -16 -35 -34 -49 -41 -26 -13
-27 -13 -2 -7 17 4 21 2 12 -4 -8 -5 -14 -13 -13 -18 0 -5 -9 -9 -19 -8 -11 0
-18 -2 -15 -4 3 -3 -1 -12 -8 -21 -11 -14 -10 -14 6 -2 15 12 17 12 11 -3 -7
-18 -34 -22 -34 -4 0 6 -3 9 -6 6 -3 -4 -1 -16 6 -27 9 -17 8 -22 -5 -27 -8
-3 -15 -10 -15 -16 0 -5 -12 -25 -27 -45 -15 -19 -28 -42 -29 -51 -3 -19 17
-40 34 -34 6 2 12 -2 12 -10 0 -9 3 -9 8 -2 9 14 96 28 87 14 -3 -6 -11 -7
-17 -4 -7 4 -8 2 -4 -4 10 -16 12 -15 35 9 12 13 21 17 26 10 3 -6 11 -11 16
-11 6 0 7 5 4 10 -3 5 -2 10 4 10 5 0 12 -6 14 -12 4 -10 6 -10 6 0 1 16 28
16 33 0 3 -9 12 -8 31 5 33 22 36 21 30 -3 -3 -12 0 -20 6 -20 7 0 9 5 6 10
-13 21 17 39 63 40 26 0 55 1 65 1 10 0 15 5 11 11 -4 7 -2 8 5 4 9 -6 9 -11
-1 -23 -12 -15 -11 -15 9 -3 12 8 20 17 18 21 -3 3 11 5 30 4 19 -1 35 1 35 5
0 3 15 6 33 5 17 0 37 3 44 7 6 5 14 5 18 -2 3 -5 3 -10 -1 -10 -4 0 8 -11 27
-23 19 -13 33 -29 32 -35 -2 -7 2 -12 7 -12 6 0 10 -7 10 -15 0 -8 6 -15 13
-15 6 0 28 -16 47 -36 19 -19 28 -34 20 -32 -8 2 -20 9 -26 17 -9 11 -12 12
-19 1 -6 -9 -4 -11 5 -5 10 6 12 3 8 -13 -4 -12 -1 -25 4 -29 6 -3 8 -1 5 4
-4 6 0 14 8 17 22 8 98 -62 92 -85 -3 -11 0 -16 8 -13 7 3 28 -11 47 -32 18
-20 42 -46 53 -57 11 -11 15 -17 10 -14 -6 3 -17 1 -25 -5 -12 -8 -12 -9 3 -4
11 3 26 -3 40 -17 12 -12 26 -21 30 -19 5 1 6 -7 2 -18 -5 -15 -3 -20 7 -18 7
2 15 0 16 -4 4 -15 37 -45 45 -41 12 7 8 -22 -5 -37 -11 -12 -10 -12 3 -2 16
12 29 7 29 -10 0 -5 -4 -7 -8 -4 -5 3 -9 -1 -9 -8 0 -7 6 -13 13 -13 7 0 11 4
8 8 -2 4 0 10 6 14 5 3 10 -1 10 -9 0 -8 10 -18 21 -21 17 -6 19 -9 8 -16 -11
-7 -11 -9 2 -9 18 0 62 -43 53 -52 -3 -4 4 -9 15 -13 12 -3 19 -10 16 -15 -3
-4 2 -10 10 -14 8 -3 15 -13 15 -21 0 -9 4 -13 10 -10 9 6 14 -8 11 -27 0 -5
2 -7 7 -6 14 4 52 -13 52 -23 0 -6 9 -7 20 -4 14 4 20 2 20 -8 0 -8 7 -18 16
-21 15 -6 15 -4 3 11 -13 15 -12 16 9 11 12 -4 22 -2 22 2 0 5 12 7 26 4 16
-3 23 -1 19 6 -3 6 0 7 10 4 10 -4 15 -2 13 6 -2 7 3 15 11 18 9 3 11 0 6 -9
-5 -8 -4 -11 1 -6 5 5 9 12 9 16 0 4 8 15 18 25 12 12 17 14 17 4 0 -7 6 -4
12 7 16 28 29 35 58 29 24 -4 24 -4 3 5 -13 6 -23 13 -23 16 0 4 5 3 10 0 5
-3 10 -1 10 4 0 6 5 11 11 11 5 0 7 -6 3 -12 -4 -7 6 1 22 17 16 17 28 33 26
38 -2 4 0 7 5 6 4 -1 10 0 13 1 3 1 16 4 30 5 14 1 32 4 40 6 8 2 14 -2 13 -8
-2 -7 2 -13 8 -13 18 0 70 -41 64 -50 -3 -5 4 -12 15 -15 18 -6 19 -9 8 -22
-11 -14 -10 -15 8 -9 28 8 41 -19 16 -33 -23 -14 -6 -14 19 -1 15 8 21 7 25
-5 3 -8 11 -12 17 -8 6 3 7 1 3 -6 -6 -9 -11 -9 -22 0 -12 10 -15 10 -12 -2 2
-8 -3 -13 -10 -11 -8 1 -11 -2 -7 -8 3 -6 12 -7 18 -3 21 13 56 10 61 -4 4 -9
1 -11 -6 -7 -7 4 -8 3 -4 -4 4 -7 15 -12 25 -12 18 0 81 -62 81 -80 0 -5 3 -9
8 -8 14 3 42 -14 36 -23 -3 -5 -1 -9 4 -9 4 0 19 -10 32 -23 14 -12 28 -21 32
-20 5 2 8 -2 8 -7 0 -17 22 -11 48 13 17 15 26 18 29 10 3 -7 10 -13 16 -13 8
0 7 4 -1 12 -17 17 -15 28 4 28 9 0 12 5 8 12 -5 8 0 9 15 5 17 -4 21 -2 17 9
-4 11 0 14 16 12 11 -2 23 3 25 10 3 6 0 12 -7 12 -6 0 -8 -5 -4 -12 5 -7 3
-8 -5 -4 -9 6 -8 13 6 26 10 9 20 16 21 14 2 -1 19 13 37 32 18 19 39 34 47
34 8 -1 6 -6 -6 -15 -11 -8 -15 -15 -9 -15 20 0 34 25 20 39 -9 10 -7 11 14 8
17 -4 26 -1 26 9 0 10 -4 11 -14 3 -9 -8 -13 -8 -13 0 0 11 11 14 45 12 16 -2
17 0 6 8 -12 8 -12 12 2 26 10 9 17 13 17 9 0 -4 6 0 13 11 8 10 19 15 25 11
6 -3 14 -1 18 5 4 7 3 9 -4 5 -6 -3 -13 -2 -17 4 -3 5 3 10 14 10 12 0 21 5
21 11 0 5 5 7 12 3 7 -4 8 -3 4 5 -9 14 17 41 39 41 11 0 15 5 11 15 -3 8 -2
15 2 15 4 0 36 27 71 60 35 33 70 60 76 60 7 0 15 9 18 21 3 12 10 18 16 14 6
-3 11 -3 11 2 0 4 4 14 9 22 7 10 13 11 30 1 21 -11 22 -10 12 8 -8 16 -7 21
5 26 8 3 12 11 8 17 -4 8 -3 9 4 5 6 -4 17 2 23 13 7 11 19 17 27 13 10 -3 13
-1 8 6 -3 6 -2 13 4 17 5 3 10 0 10 -7 0 -7 6 -2 13 12 8 16 21 25 35 24 26
-2 27 0 5 17 -9 8 -14 9 -10 2 9 -14 -19 -11 -34 4 -8 8 -2 10 21 8 17 -1 37
3 44 11 15 14 26 9 22 -9 -2 -7 -1 -9 1 -4 3 4 10 4 16 0 7 -3 9 -3 5 2 -4 4
-2 15 5 24 11 14 10 14 -5 2 -10 -7 -18 -9 -18 -3 0 16 26 22 39 9 9 -9 11 -8
6 5 -5 12 3 22 27 34 18 10 39 17 47 15 7 -1 10 2 7 7 -3 5 9 17 26 25 25 12
36 13 47 4 12 -10 13 -9 2 10 -10 20 -9 23 5 23 10 0 14 5 10 15 -3 8 -1 15 3
15 12 0 19 -22 14 -38 -3 -6 -10 -9 -16 -5 -7 3 -8 2 -4 -2 13 -15 36 -14 30
1 -4 10 0 13 13 8 18 -5 18 -5 2 6 -10 6 -18 16 -18 22 0 7 6 6 15 -2 13 -11
14 -10 8 6 -6 17 -5 18 13 4 10 -8 16 -11 12 -6 -12 15 20 38 44 31 18 -5 20
-4 8 5 -13 9 -13 12 3 24 9 7 17 17 17 22 0 5 9 15 20 22 12 7 18 18 14 25 -4
7 3 3 16 -8 13 -11 20 -15 17 -8 -4 6 0 16 10 22 10 6 13 11 7 11 -5 0 -15 -5
-22 -12 -18 -18 -15 5 4 28 8 10 12 12 8 4 -4 -8 -4 -12 1 -8 4 4 15 2 23 -5
13 -10 14 -9 2 9 -11 17 -10 25 5 47 9 15 21 24 26 21 5 -3 13 6 18 19 12 31
34 46 29 21 -2 -11 -7 -22 -11 -25 -5 -3 -3 -9 5 -11 9 -4 14 6 15 35 3 37 15
56 36 57 5 0 6 -4 3 -8 -3 -5 1 -9 8 -9 15 0 15 21 1 34 -4 4 -5 2 0 -6 5 -10
4 -12 -4 -7 -15 10 -3 29 15 22 8 -3 11 0 8 8 -3 8 6 23 20 33 14 11 23 22 21
25 -2 2 5 4 15 5 22 2 27 -12 8 -23 -7 -5 -8 -3 -3 7 5 7 -4 3 -20 -9 -16 -13
-29 -33 -30 -47 0 -13 3 -21 8 -18 5 3 6 14 4 25 -4 12 -1 18 6 15 7 -3 11
-10 9 -16 -1 -7 2 -10 8 -6 6 3 8 10 5 15 -3 5 -1 11 4 15 12 7 33 -29 23 -39
-3 -4 2 -4 13 0 11 5 14 9 7 12 -7 2 -12 8 -12 13 0 6 8 6 19 -1 11 -5 23 -10
28 -10 4 1 -3 7 -17 15 -14 7 -25 17 -25 22 0 4 -3 7 -7 6 -4 -2 -5 4 -2 12 5
12 13 8 36 -17 54 -60 63 -78 47 -90 -11 -8 -10 -9 4 -4 20 6 49 -3 42 -14 -3
-4 7 -15 21 -25 17 -11 22 -20 16 -28 -6 -7 -6 -20 -1 -32 9 -18 9 -18 5 2 -2
13 -1 23 3 23 12 0 41 -35 41 -48 0 -7 7 -12 15 -12 8 0 15 -7 15 -16 0 -8 -5
-12 -11 -9 -6 4 -5 -2 3 -14 7 -12 17 -21 22 -21 4 0 3 7 -4 15 -17 21 -7 19
18 -4 12 -10 22 -26 22 -35 0 -10 4 -15 9 -12 4 3 22 -10 39 -29 18 -19 27
-37 22 -40 -6 -3 -10 -1 -10 6 0 7 -2 10 -5 7 -8 -8 6 -38 17 -38 5 0 6 5 3
10 -3 6 -2 10 2 10 11 0 43 -37 43 -51 0 -5 5 -7 10 -4 6 3 10 -1 10 -10 0
-10 -5 -13 -12 -9 -7 4 -8 3 -4 -5 6 -9 11 -9 23 1 14 11 15 10 9 -12 -6 -19
-5 -22 3 -10 10 13 12 13 21 0 5 -8 10 -10 10 -5 0 6 5 3 10 -5 7 -11 10 -11
10 -2 0 7 5 10 10 7 6 -4 7 -11 4 -17 -4 -7 -2 -8 4 -4 7 4 12 15 12 24 0 10
3 13 8 7 4 -5 13 -11 21 -13 12 -3 12 0 2 12 -10 12 -9 14 8 9 23 -6 27 7 9
26 -11 10 -10 11 3 6 17 -6 32 8 35 33 1 6 -3 12 -9 12 -6 0 -3 6 6 12 15 12
13 17 -23 58 -21 25 -39 50 -39 55 -1 6 4 3 9 -5 7 -10 10 -11 10 -2 0 7 -7
15 -15 18 -8 4 -12 11 -8 18 4 6 -2 4 -12 -4 -17 -14 -18 -13 -12 2 4 12 0 19
-14 23 -10 4 -20 9 -20 13 -1 4 -3 20 -5 35 -3 26 -1 27 14 15 13 -9 12 -7 -2
10 -24 28 -25 28 -21 -3 3 -31 -2 -31 -26 -3 -19 21 -26 43 -11 34 5 -3 9 1 9
9 0 8 -5 13 -11 12 -5 -1 -10 3 -11 10 0 17 -25 41 -25 25 0 -7 5 -12 12 -12
6 0 8 -3 5 -7 -4 -3 -2 -12 4 -19 7 -8 7 -14 -1 -19 -5 -3 -10 -2 -10 3 0 4
-10 19 -21 31 -18 19 -19 25 -8 32 8 5 10 9 5 9 -5 0 -5 6 0 13 5 7 1 4 -9 -6
-14 -16 -20 -17 -32 -7 -8 7 -12 16 -9 21 3 5 -2 9 -10 9 -9 0 -16 6 -16 14 0
7 -11 21 -24 30 -14 8 -27 25 -31 36 -4 12 -11 17 -18 13 -7 -4 -6 1 2 10 13
17 8 22 -20 19 -3 -1 -6 6 -6 13 0 11 4 12 14 4 11 -10 17 -6 15 12 -1 3 6 6
14 6 8 0 14 -4 14 -9 0 -4 -4 -8 -10 -8 -5 0 -10 -4 -10 -8 0 -5 7 -9 15 -9
14 0 16 3 19 29 0 7 17 13 36 14 19 2 55 6 80 9 25 4 63 8 85 10 22 2 40 4 40
5 0 1 16 4 35 6 53 5 95 11 95 14 0 1 8 3 18 5 11 2 15 -1 11 -8 -5 -8 -2 -7
7 1 7 6 22 12 33 12 12 0 32 13 46 28 13 15 20 24 15 19 -9 -8 -47 42 -39 54
2 4 -1 11 -7 15 -8 5 -9 3 -4 -7 5 -8 -4 -3 -18 10 -24 22 -39 60 -19 47 5 -3
9 1 9 9 0 13 -3 13 -16 1 -13 -12 -18 -12 -28 -1 -12 13 -7 25 9 25 5 0 6 -5
2 -12 -4 -7 -3 -8 4 -4 16 10 15 14 -9 27 -15 8 -19 8 -15 0 4 -6 3 -11 -2
-11 -13 0 -42 34 -42 49 0 7 -5 9 -12 5 -10 -6 -10 -5 0 8 10 12 10 17 0 25
-27 20 -42 24 -18 4 20 -17 22 -21 8 -21 -10 0 -18 4 -18 8 0 5 -21 31 -47 59
-64 68 -73 80 -73 93 0 5 -5 10 -11 10 -6 0 -31 20 -56 45 -34 33 -44 50 -40
65 4 16 2 19 -7 11 -8 -7 -24 5 -56 42 -25 28 -45 53 -45 56 0 3 -4 12 -9 20
-6 10 -5 12 2 7 7 -4 12 -1 12 8 0 9 6 16 13 16 8 0 7 4 -3 10 -12 7 -12 10
-1 10 7 0 11 6 8 14 -4 10 -1 13 7 10 8 -3 12 -15 10 -27 -4 -21 -4 -21 5 -2
5 11 5 25 0 31 -9 11 23 89 32 79 3 -3 5 5 5 18 -1 18 4 21 24 19 23 -2 23 -1
7 10 -17 13 -16 17 14 83 18 39 33 77 35 85 2 8 8 16 14 18 5 2 7 9 3 15 -4 7
1 5 11 -3 18 -14 54 -25 41 -12 -4 4 -12 7 -18 7 -7 0 -13 8 -15 19 -3 13 0
16 10 11 10 -6 10 -5 1 5 -18 20 5 63 31 56 20 -5 20 -4 2 9 -10 7 -15 18 -11
24 4 7 0 8 -11 4 -14 -5 -16 -3 -11 11 4 10 3 15 -3 11 -17 -11 -11 7 8 22 13
10 13 13 2 11 -8 -2 -21 -10 -28 -18 -8 -8 -11 -9 -7 -2 3 6 1 12 -5 12 -6 0
-9 4 -5 9 3 5 -4 12 -15 16 -11 4 -18 10 -15 15 3 4 -2 11 -11 14 -9 4 -14 13
-10 21 3 8 0 14 -6 12 -6 -1 -13 4 -15 11 -3 8 2 10 14 6 14 -4 15 -4 4 4 -7
5 -10 16 -6 23 4 8 -3 3 -14 -11 -18 -22 -20 -22 -17 -5 3 11 7 29 10 40 5 16
4 15 -5 -2 -15 -29 -21 -29 -45 0 -32 36 -37 48 -20 41 9 -3 16 -2 16 3 0 11
-55 11 -66 1 -4 -5 -20 -8 -35 -8 -15 0 -31 -4 -34 -10 -3 -5 -11 -10 -17 -10
-6 0 -5 7 3 18 12 15 12 16 -2 5 -9 -7 -19 -10 -22 -7 -3 3 -12 2 -19 -2 -24
-15 -41 -13 -72 9 -17 12 -33 21 -36 19 -2 -1 -5 14 -6 33 -1 19 1 33 6 30 5
-3 12 -1 15 5 4 6 3 10 -2 9 -22 -4 -35 2 -30 15 3 7 0 19 -6 26 -9 10 -9 11
2 5 9 -5 12 -3 9 6 -3 8 4 25 16 38 l21 24 -25 -16 -25 -16 0 44 c0 24 3 41 6
39 4 -2 9 3 13 11 3 8 0 17 -6 21 -7 4 -8 3 -4 -4 4 -7 3 -12 -2 -12 -5 0 -8
20 -8 45 1 25 5 45 10 45 4 0 6 -7 3 -15 -4 -8 -1 -17 6 -21 7 -4 9 -4 5 1 -4
4 -3 16 3 26 5 11 6 19 2 18 -28 -5 -35 2 -30 30 4 19 2 32 -6 35 -7 4 -1 4
13 2 24 -5 24 -4 5 10 -20 15 -30 64 -12 64 5 0 6 -8 2 -17 -5 -15 -4 -16 7
-5 11 11 10 15 -2 25 -17 14 -24 67 -9 67 6 0 7 -5 3 -12 -5 -7 -3 -8 6 -3 10
6 10 10 -2 19 -20 15 -19 46 1 71 15 18 15 19 -1 7 -11 -9 -18 -10 -23 -2 -3
5 -2 10 2 10 5 0 18 7 29 16 18 14 18 15 -3 4 -13 -6 -23 -7 -24 -3 -4 41 -4
63 1 63 4 0 14 6 24 13 16 12 16 13 -3 13 -11 0 -17 -5 -14 -10 3 -5 2 -6 -4
-3 -5 3 -8 23 -7 44 1 21 -3 46 -8 57 -7 13 -7 16 1 12 6 -4 11 -3 11 3 0 5 9
13 21 16 11 4 18 9 16 12 -3 2 -15 -1 -27 -7 -20 -11 -21 -10 -15 10 5 17 4
20 -5 15 -9 -6 -11 -4 -4 6 12 20 14 38 3 45 -5 3 -7 10 -3 15 3 5 10 7 15 4
5 -4 9 0 9 8 0 8 11 26 24 40 13 14 21 29 17 34 -3 4 2 2 11 -5 14 -11 16 -10
11 7 -3 13 2 23 16 30 14 8 18 17 14 29 -6 15 -5 16 12 2 10 -8 16 -10 12 -3
-4 7 4 31 18 53 23 36 28 40 42 28 15 -12 15 -11 5 9 -10 19 -9 24 10 38 13 8
22 18 21 20 -7 13 -1 15 20 4 18 -9 20 -9 10 2 -7 7 -13 19 -13 27 0 7 6 12
13 9 6 -2 11 -10 9 -16 -1 -7 2 -10 8 -6 7 5 8 11 1 19 -10 12 0 37 15 38 19
1 34 11 34 21 0 7 -4 7 -12 -1 -7 -7 -16 -12 -21 -12 -13 0 24 34 40 36 8 2
18 6 21 10 4 4 -1 4 -10 1 -10 -4 -18 -3 -18 2 0 16 13 20 34 9 20 -11 21 -10
3 9 -18 20 -17 21 9 42 14 11 30 19 34 16 3 -2 7 2 7 10 0 12 -4 12 -16 3 -11
-8 -10 -5 2 8 15 16 19 17 27 4 5 -8 6 -18 3 -24 -3 -5 -1 -6 5 -2 9 5 9 13 2
26 -16 30 -13 53 7 46 10 -4 14 -4 10 0 -4 4 -2 13 4 21 6 7 8 13 5 13 -4 0 5
12 19 27 32 36 32 43 -5 43 -17 0 -30 5 -30 13 0 8 -4 7 -10 -3 -9 -13 -10
-13 -10 0 0 13 -1 13 -10 0 -7 -11 -10 -11 -10 -2 0 7 -4 10 -10 7 -5 -3 -10
0 -10 7 0 10 -2 11 -8 0 -5 -7 -16 -10 -25 -6 -9 3 -14 10 -11 15 3 5 0 9 -5
9 -6 0 -11 -8 -11 -17 0 -13 -3 -14 -11 -6 -6 6 -18 9 -27 6 -11 -5 -13 -3 -7
8 8 12 6 12 -8 1 -15 -12 -16 -11 -12 17 2 18 0 29 -6 25 -5 -3 -7 -10 -3 -15
9 -16 -14 -36 -38 -33 -34 4 -34 4 -20 13 11 7 11 9 -2 14 -9 4 -15 1 -13 -6
1 -7 -6 -12 -15 -11 -10 0 -34 1 -53 2 -32 2 -35 4 -31 28 3 15 2 23 -2 19 -4
-3 -8 -11 -8 -16 -1 -5 -2 -13 -3 -17 0 -4 -10 -8 -21 -9 -11 -1 -18 2 -15 6
2 5 -4 11 -16 14 -17 5 -18 3 -7 -10 12 -15 11 -15 -10 -4 -12 7 -20 16 -17
20 2 5 -1 14 -9 20 -10 9 -15 8 -19 -3 -4 -9 -1 -13 6 -10 8 3 13 -5 14 -18 1
-13 -1 -18 -5 -12 -4 6 -26 10 -49 9 -23 -1 -41 3 -40 8 1 5 -4 12 -11 14 -8
3 -10 -2 -6 -14 4 -11 3 -14 -3 -7 -4 6 -27 11 -51 10 -30 -1 -41 2 -38 11 3
7 1 15 -5 18 -5 4 -8 1 -7 -7 2 -9 -11 -13 -50 -13 -42 0 -56 4 -64 18 -9 18
-11 18 -29 1 -10 -9 -21 -15 -23 -13 -1 2 -9 13 -15 24 -9 14 -11 15 -7 3 3
-10 1 -20 -4 -23 -9 -5 -14 6 -12 26 1 10 -36 3 -50 -9 -11 -9 -18 -9 -28 1
-10 10 -11 9 -5 -1 6 -11 3 -12 -13 -3 -15 8 -22 8 -25 -2 -3 -7 -6 -5 -6 5
-1 9 -5 20 -11 23 -5 3 -7 0 -4 -9z m126 -20 c7 4 8 2 4 -4 -4 -6 -13 -9 -21
-6 -8 4 -12 11 -8 17 5 8 8 7 11 -1 2 -7 9 -9 14 -6z m98 -6 c0 -5 -5 -10 -11
-10 -5 0 -7 5 -4 10 3 6 8 10 11 10 2 0 4 -4 4 -10z m-1560 -675 c7 -9 8 -15
2 -15 -5 0 -12 7 -16 15 -3 8 -4 15 -2 15 2 0 9 -7 16 -15z m-256 -101 c3 -8
2 -12 -4 -9 -6 3 -10 10 -10 16 0 14 7 11 14 -7z m2266 -1008 c0 5 7 1 14 -9
9 -12 16 -14 21 -7 3 5 10 8 15 5 5 -3 11 -1 15 5 10 16 25 12 24 -7 0 -10 -3
-13 -5 -6 -4 8 -12 8 -30 -2 -14 -7 -33 -12 -42 -10 -9 1 -21 -3 -25 -9 -5 -6
-5 0 -1 14 6 23 6 24 -12 10 -15 -11 -16 -11 -6 0 17 20 15 35 -3 20 -9 -8
-15 -8 -15 -2 0 18 24 20 38 4 6 -9 12 -12 12 -6z m0 -1622 c0 -8 -19 -13 -24
-6 -3 5 1 9 9 9 8 0 15 -2 15 -3z m-3620 -373 c0 -5 -7 -12 -16 -15 -14 -5
-15 -4 -4 9 14 17 20 19 20 6z m2830 -225 c0 -3 -4 -8 -10 -11 -5 -3 -10 -1
-10 4 0 6 5 11 10 11 6 0 10 -2 10 -4z m-1303 -332 c-3 -3 -12 -4 -19 -1 -8 3
-5 6 6 6 11 1 17 -2 13 -5z"/>
<path d="M3430 4986 c0 -2 7 -7 16 -10 8 -3 12 -2 9 4 -6 10 -25 14 -25 6z"/>
<path d="M3828 4972 c9 -10 19 -17 21 -16 6 5 -20 34 -30 34 -5 0 -1 -8 9 -18z"/>
<path d="M3810 4960 c0 -5 5 -10 11 -10 5 0 7 5 4 10 -3 6 -8 10 -11 10 -2 0
-4 -4 -4 -10z"/>
<path d="M3890 4961 c0 -6 4 -13 10 -16 6 -3 7 1 4 9 -7 18 -14 21 -14 7z"/>
<path d="M4005 4939 c-3 -4 2 -6 10 -5 21 3 28 13 10 13 -9 0 -18 -4 -20 -8z"/>
<path d="M4419 4943 c-1 -5 -1 -12 0 -17 1 -5 -5 -6 -14 -2 -10 3 -14 2 -10
-5 9 -14 28 -6 31 14 1 9 0 17 -2 17 -2 0 -5 -3 -5 -7z"/>
<path d="M3394 4905 c-14 -19 -29 -33 -33 -30 -4 2 -8 -2 -8 -10 0 -8 4 -12 8
-9 12 7 71 84 65 84 -3 0 -17 -16 -32 -35z"/>
<path d="M4261 4933 c-1 -7 -9 -10 -18 -7 -16 5 -16 4 0 -6 21 -13 32 -8 24
12 -4 9 -6 9 -6 1z"/>
<path d="M4494 4918 c-4 -7 -4 -10 1 -6 4 4 15 2 24 -5 14 -11 14 -10 2 6 -16
20 -18 21 -27 5z"/>
<path d="M1636 4902 c-3 -5 1 -9 9 -9 8 0 12 4 9 9 -3 4 -7 8 -9 8 -2 0 -6 -4
-9 -8z"/>
<path d="M3345 4899 c-3 -4 2 -6 10 -5 21 3 28 13 10 13 -9 0 -18 -4 -20 -8z"/>
<path d="M1595 4891 c-3 -5 -2 -12 3 -15 5 -3 9 1 9 9 0 17 -3 19 -12 6z"/>
<path d="M1471 4843 c-1 -17 16 -25 25 -12 4 7 3 9 -4 5 -5 -3 -13 0 -15 6 -4
9 -6 10 -6 1z"/>
<path d="M3226 4822 c-3 -5 1 -9 9 -9 8 0 12 4 9 9 -3 4 -7 8 -9 8 -2 0 -6 -4
-9 -8z"/>
<path d="M1690 4794 c12 -13 62 -26 54 -13 -3 5 -14 9 -25 9 -11 0 -18 4 -15
8 3 5 -1 9 -9 9 -10 0 -12 -4 -5 -13z"/>
<path d="M4575 4780 c-3 -5 -1 -10 4 -10 6 0 11 5 11 10 0 6 -2 10 -4 10 -3 0
-8 -4 -11 -10z"/>
<path d="M4546 4739 c4 -8 30 -6 38 2 3 3 -5 5 -19 5 -13 0 -22 -3 -19 -7z"/>
<path d="M3183 4727 c4 -10 2 -17 -5 -17 -6 0 -9 -3 -5 -6 3 -3 12 -2 20 3 13
7 13 10 -1 23 -14 13 -15 12 -9 -3z"/>
<path d="M3139 4713 c-13 -16 -12 -17 4 -4 16 13 21 21 13 21 -2 0 -10 -8 -17
-17z"/>
<path d="M1470 4679 c0 -5 5 -7 10 -4 6 3 10 8 10 11 0 2 -4 4 -10 4 -5 0 -10
-5 -10 -11z"/>
<path d="M3130 4678 c0 -10 9 -9 35 2 17 8 16 8 -7 7 -16 -1 -28 -5 -28 -9z"/>
<path d="M4470 4660 c0 -5 7 -7 15 -4 8 4 15 8 15 10 0 2 -7 4 -15 4 -8 0 -15
-4 -15 -10z"/>
<path d="M1837 4636 c20 -26 27 -28 17 -3 -3 8 -12 18 -20 21 -11 4 -10 0 3
-18z"/>
<path d="M1507 4643 c-3 -5 6 -9 20 -10 19 -1 22 1 12 8 -17 11 -26 11 -32 2z"/>
<path d="M4490 4639 c0 -5 5 -7 10 -4 6 3 10 8 10 11 0 2 -4 4 -10 4 -5 0 -10
-5 -10 -11z"/>
<path d="M1887 4601 c-4 -17 -3 -21 5 -13 5 5 8 16 6 23 -3 8 -7 3 -11 -10z"/>
<path d="M3070 4599 c0 -5 5 -7 10 -4 6 3 10 8 10 11 0 2 -4 4 -10 4 -5 0 -10
-5 -10 -11z"/>
<path d="M1914 4577 c1 -22 3 -25 12 -12 6 8 15 11 19 7 5 -4 5 -1 1 6 -4 7
-11 10 -16 7 -4 -3 -10 1 -13 7 -2 7 -4 1 -3 -15z"/>
<path d="M2977 4559 c7 -7 15 -10 18 -7 3 3 -2 9 -12 12 -14 6 -15 5 -6 -5z"/>
<path d="M3013 4555 c0 -8 4 -12 9 -9 5 3 6 10 3 15 -9 13 -12 11 -12 -6z"/>
<path d="M1930 4541 c0 -5 7 -15 17 -22 15 -13 15 -12 4 9 -12 23 -21 28 -21
13z"/>
<path d="M4397 4529 c7 -7 15 -10 18 -7 3 3 -2 9 -12 12 -14 6 -15 5 -6 -5z"/>
<path d="M1555 4520 c-3 -5 -1 -10 4 -10 6 0 11 5 11 10 0 6 -2 10 -4 10 -3 0
-8 -4 -11 -10z"/>
<path d="M1977 4515 c-8 -19 12 -30 26 -16 9 9 8 11 -6 5 -13 -5 -16 -2 -11
10 3 9 4 16 1 16 -3 0 -7 -7 -10 -15z"/>
<path d="M2950 4500 c0 -5 5 -10 10 -10 6 0 10 5 10 10 0 6 -4 10 -10 10 -5 0
-10 -4 -10 -10z"/>
<path d="M1634 4484 c1 -8 4 -15 7 -16 2 -2 3 -1 2 1 -2 2 2 9 7 16 7 8 5 12
-4 12 -8 0 -13 -6 -12 -13z"/>
<path d="M4348 4463 c7 -3 16 -2 19 1 4 3 -2 6 -13 5 -11 0 -14 -3 -6 -6z"/>
<path d="M4305 4451 c-6 -11 13 -26 22 -17 4 3 0 6 -8 6 -11 0 -11 2 1 10 9 6
10 10 3 10 -6 0 -14 -4 -18 -9z"/>
<path d="M2880 4440 c-9 -6 -10 -10 -3 -10 6 0 15 5 18 10 8 12 4 12 -15 0z"/>
<path d="M2090 4405 c-9 -11 -10 -19 -3 -26 8 -8 13 -7 18 2 5 8 4 10 -3 5
-16 -9 -15 7 0 22 7 7 9 12 6 12 -3 0 -11 -7 -18 -15z"/>
<path d="M4275 4400 c3 -5 8 -10 11 -10 2 0 4 5 4 10 0 6 -5 10 -11 10 -5 0
-7 -4 -4 -10z"/>
<path d="M1725 4390 c-3 -5 -5 -10 -3 -11 33 -8 38 -7 27 7 -14 17 -16 17 -24
4z"/>
<path d="M2816 4387 c3 -10 9 -15 12 -12 3 3 0 11 -7 18 -10 9 -11 8 -5 -6z"/>
<path d="M2127 4379 c7 -7 15 -10 18 -7 3 3 -2 9 -12 12 -14 6 -15 5 -6 -5z"/>
<path d="M4252 4370 c-9 -15 -9 -21 1 -26 6 -4 9 -4 5 1 -4 4 -3 14 4 22 6 7
9 15 7 18 -3 2 -10 -4 -17 -15z"/>
<path d="M1710 4361 c0 -10 29 -36 34 -30 1 2 -6 12 -16 22 -10 9 -18 13 -18
8z"/>
<path d="M2836 4347 c3 -10 9 -15 12 -12 3 3 0 11 -7 18 -10 9 -11 8 -5 -6z"/>
<path d="M1784 4311 c0 -11 6 -17 13 -14 6 3 9 11 6 19 -7 20 -19 17 -19 -5z"/>
<path d="M2815 4320 c-3 -5 -1 -10 4 -10 6 0 11 5 11 10 0 6 -2 10 -4 10 -3 0
-8 -4 -11 -10z"/>
<path d="M4245 4319 c-3 -4 2 -6 10 -5 21 3 28 13 10 13 -9 0 -18 -4 -20 -8z"/>
<path d="M2836 4305 c-16 -12 -17 -15 -4 -15 9 0 18 7 22 15 7 18 6 18 -18 0z"/>
<path d="M2730 4299 c0 -5 -5 -7 -12 -3 -7 4 -8 3 -4 -5 6 -9 11 -9 22 0 17
14 18 19 4 19 -5 0 -10 -5 -10 -11z"/>
<path d="M2793 4290 c14 -11 28 -20 32 -20 4 0 -4 9 -18 20 -14 11 -28 20 -32
20 -4 0 4 -9 18 -20z"/>
<path d="M4214 4295 c-4 -8 -11 -12 -17 -8 -6 4 -7 1 -2 -7 6 -10 11 -10 20 3
7 9 16 13 20 9 5 -4 5 -1 1 6 -9 16 -15 15 -22 -3z"/>
<path d="M1810 4280 c8 -5 11 -10 6 -10 -6 0 -1 -6 10 -14 15 -12 17 -17 7
-27 -11 -11 -13 -10 -13 2 0 8 -9 20 -21 27 -18 12 -18 9 5 -21 27 -35 54 -53
64 -42 3 3 2 5 -3 5 -4 0 -2 7 5 16 11 12 11 15 -1 12 -8 -2 -14 5 -14 14 0
10 -4 17 -9 17 -5 0 -13 6 -18 15 -5 9 -14 16 -21 16 -7 0 -6 -4 3 -10z m45
-60 c3 -5 -1 -10 -10 -10 -9 0 -13 5 -10 10 3 6 8 10 10 10 2 0 7 -4 10 -10z"/>
<path d="M2775 4273 c5 -19 3 -22 -12 -16 -17 6 -17 5 1 -12 11 -11 26 -20 35
-20 9 0 15 -6 14 -12 -3 -15 6 -16 24 -5 20 13 9 45 -17 47 -13 1 -30 10 -38
21 -13 18 -14 18 -7 -3z m62 -40 c0 -9 -6 -9 -19 -2 -10 5 -23 7 -28 4 -6 -3
-10 -2 -10 4 0 6 13 9 28 8 16 -1 29 -7 29 -14z"/>
<path d="M1752 4247 c-8 -10 -6 -13 11 -14 12 0 16 1 9 4 -6 3 -10 9 -6 14 8
14 -2 11 -14 -4z"/>
<path d="M4233 4245 c0 -8 4 -12 9 -9 5 3 6 10 3 15 -9 13 -12 11 -12 -6z"/>
<path d="M1600 4246 c0 -2 8 -10 18 -17 15 -13 16 -12 3 4 -13 16 -21 21 -21
13z"/>
<path d="M2250 4240 c0 -5 5 -10 11 -10 5 0 7 5 4 10 -3 6 -8 10 -11 10 -2 0
-4 -4 -4 -10z"/>
<path d="M4155 4242 c3 -3 -3 -11 -13 -18 -9 -7 -12 -14 -6 -14 6 0 18 8 27
18 15 16 15 19 2 19 -8 0 -13 -3 -10 -5z"/>
<path d="M1534 4215 c-4 -8 -10 -12 -15 -9 -5 3 -12 -2 -15 -11 -6 -14 -9 -14
-28 2 l-21 18 20 -23 c17 -21 21 -21 31 -8 6 9 14 13 17 10 3 -3 10 4 17 15 6
12 8 21 5 21 -3 0 -8 -7 -11 -15z"/>
<path d="M1655 4220 c3 -5 8 -10 11 -10 2 0 4 5 4 10 0 6 -5 10 -11 10 -5 0
-7 -4 -4 -10z"/>
<path d="M1793 4205 c0 -14 2 -25 6 -26 50 -7 73 -6 61 1 -8 5 -17 7 -21 4 -4
-2 -16 7 -27 21 l-19 25 0 -25z"/>
<path d="M4187 4219 c7 -7 15 -10 18 -7 3 3 -2 9 -12 12 -14 6 -15 5 -6 -5z"/>
<path d="M1765 4201 c-3 -5 -2 -12 3 -15 5 -3 9 1 9 9 0 17 -3 19 -12 6z"/>
<path d="M4125 4190 c-4 -6 -12 -8 -18 -4 -7 3 -4 -1 5 -9 10 -8 15 -16 12
-19 -2 -3 2 -8 11 -12 13 -5 14 -2 5 14 -6 11 -8 25 -5 30 3 6 4 10 1 10 -3 0
-8 -5 -11 -10z"/>
<path d="M1423 4177 c-3 -6 -1 -7 5 -3 5 3 12 1 14 -6 3 -8 6 -7 10 3 7 17
-19 22 -29 6z"/>
<path d="M2325 4182 c-10 -7 -18 -32 -10 -32 2 0 9 9 15 20 12 22 11 24 -5 12z"/>
<path d="M2356 4178 c3 -5 10 -6 15 -3 13 9 11 12 -6 12 -8 0 -12 -4 -9 -9z"/>
<path d="M2373 4155 c-17 -25 -18 -33 -7 -31 20 3 44 40 36 53 -5 7 -16 -1
-29 -22z"/>
<path d="M1366 4161 c-13 -14 -14 -21 -5 -27 8 -4 10 -3 5 4 -4 7 -3 12 2 12
6 0 12 7 16 15 7 20 3 19 -18 -4z"/>
<path d="M1309 4157 c6 -8 7 -18 3 -22 -4 -5 -1 -5 6 -1 10 6 10 11 1 22 -6 8
-14 14 -16 14 -3 0 0 -6 6 -13z"/>
<path d="M4117 4129 c7 -7 15 -10 18 -7 3 3 -2 9 -12 12 -14 6 -15 5 -6 -5z"/>
<path d="M1251 4121 c-8 -5 -16 -20 -17 -33 -2 -13 0 -17 2 -11 3 7 5 15 4 19
-1 3 7 12 17 20 20 15 16 19 -6 5z"/>
<path d="M1291 4114 c0 -11 3 -14 6 -6 3 7 2 16 -1 19 -3 4 -6 -2 -5 -13z"/>
<path d="M1162 4064 c10 -10 20 -15 24 -12 3 4 -5 12 -18 18 -22 12 -22 12 -6
-6z"/>
<path d="M4115 4060 c3 -5 8 -10 11 -10 2 0 4 5 4 10 0 6 -5 10 -11 10 -5 0
-7 -4 -4 -10z"/>
<path d="M1092 4056 c4 -5 3 -15 -3 -22 -7 -9 -6 -12 3 -10 18 2 65 36 51 36
-7 0 -15 -5 -18 -10 -5 -8 -12 -7 -23 2 -10 7 -14 8 -10 4z"/>
<path d="M4116 4027 c3 -10 9 -15 12 -12 3 3 0 11 -7 18 -10 9 -11 8 -5 -6z"/>
<path d="M950 4026 c0 -2 7 -7 16 -10 8 -3 12 -2 9 4 -6 10 -25 14 -25 6z"/>
<path d="M1008 4019 c-20 -11 -24 -29 -6 -29 6 0 8 3 5 7 -4 3 1 12 11 19 20
16 14 18 -10 3z"/>
<path d="M4130 4000 c-9 -6 -10 -10 -3 -10 6 0 15 5 18 10 8 12 4 12 -15 0z"/>
<path d="M930 3969 c0 -5 5 -7 10 -4 6 3 10 8 10 11 0 2 -4 4 -10 4 -5 0 -10
-5 -10 -11z"/>
<path d="M870 3960 c0 -5 7 -7 15 -4 8 4 15 8 15 10 0 2 -7 4 -15 4 -8 0 -15
-4 -15 -10z"/>
<path d="M840 3946 c0 -2 7 -7 16 -10 8 -3 12 -2 9 4 -6 10 -25 14 -25 6z"/>
<path d="M4125 3940 c-3 -6 1 -7 9 -4 18 7 21 14 7 14 -6 0 -13 -4 -16 -10z"/>
<path d="M760 3923 c6 -13 12 -23 15 -23 13 0 35 14 35 22 0 5 -4 7 -9 4 -5
-4 -11 -3 -14 1 -2 5 -2 2 -1 -4 5 -18 -6 -16 -23 5 -13 15 -13 15 -3 -5z"/>
<path d="M720 3911 c0 -7 -4 -9 -10 -6 -6 4 -7 -1 -3 -11 6 -15 7 -15 15 1 6
9 7 19 4 22 -3 4 -6 1 -6 -6z"/>
<path d="M736 3893 c-6 -14 -5 -15 5 -6 7 7 10 15 7 18 -3 3 -9 -2 -12 -12z"/>
<path d="M676 3885 c4 -8 8 -15 10 -15 2 0 4 7 4 15 0 8 -4 15 -10 15 -5 0 -7
-7 -4 -15z"/>
<path d="M555 3881 c-3 -5 -2 -12 3 -15 5 -3 9 1 9 9 0 17 -3 19 -12 6z"/>
<path d="M656 3877 c3 -10 9 -15 12 -12 3 3 0 11 -7 18 -10 9 -11 8 -5 -6z"/>
<path d="M539 3833 c-13 -15 -12 -15 9 -4 23 12 28 21 13 21 -5 0 -15 -7 -22
-17z"/>
<path d="M4130 3810 c-9 -6 -10 -10 -3 -10 6 0 15 5 18 10 8 12 4 12 -15 0z"/>
<path d="M485 3800 c3 -5 11 -10 16 -10 6 0 7 5 4 10 -3 6 -11 10 -16 10 -6 0
-7 -4 -4 -10z"/>
<path d="M4160 3800 c-9 -6 -10 -10 -3 -10 6 0 15 5 18 10 8 12 4 12 -15 0z"/>
<path d="M4150 3659 c0 -5 5 -7 10 -4 6 3 10 8 10 11 0 2 -4 4 -10 4 -5 0 -10
-5 -10 -11z"/>
<path d="M334 3605 c0 -13 3 -22 7 -19 8 4 6 30 -2 38 -3 3 -5 -5 -5 -19z"/>
<path d="M4136 3603 c-6 -14 -5 -15 5 -6 7 7 10 15 7 18 -3 3 -9 -2 -12 -12z"/>
<path d="M420 3522 c0 -5 7 -9 15 -9 8 0 12 4 9 9 -3 4 -9 8 -15 8 -5 0 -9 -4
-9 -8z"/>
<path d="M470 3510 c0 -5 5 -10 11 -10 5 0 7 5 4 10 -3 6 -8 10 -11 10 -2 0
-4 -4 -4 -10z"/>
<path d="M4140 3500 c18 -12 30 -13 30 -2 0 4 -10 9 -22 9 -18 2 -20 0 -8 -7z"/>
<path d="M4156 3462 c-3 -5 1 -9 9 -9 8 0 12 4 9 9 -3 4 -7 8 -9 8 -2 0 -6 -4
-9 -8z"/>
<path d="M4130 3436 c0 -3 9 -10 20 -16 11 -6 20 -8 20 -6 0 3 -9 10 -20 16
-11 6 -20 8 -20 6z"/>
<path d="M587 3409 c7 -7 15 -10 18 -7 3 3 -2 9 -12 12 -14 6 -15 5 -6 -5z"/>
<path d="M595 3360 c-4 -6 -1 -9 7 -8 7 2 12 -3 10 -10 -1 -8 2 -11 7 -7 11 6
3 35 -9 35 -5 0 -12 -5 -15 -10z"/>
<path d="M4157 3363 c-11 -10 -8 -20 8 -26 8 -4 17 -2 20 4 4 5 1 8 -7 7 -7
-2 -12 3 -10 10 2 13 -1 15 -11 5z"/>
<path d="M4148 3303 c7 -3 16 -2 19 1 4 3 -2 6 -13 5 -11 0 -14 -3 -6 -6z"/>
<path d="M730 3281 c0 -5 7 -12 16 -15 14 -5 15 -4 4 9 -14 17 -20 19 -20 6z"/>
<path d="M4185 3240 c-3 -6 1 -7 9 -4 18 7 21 14 7 14 -6 0 -13 -4 -16 -10z"/>
<path d="M4336 3233 c-6 -14 -5 -15 5 -6 7 7 10 15 7 18 -3 3 -9 -2 -12 -12z"/>
<path d="M4419 3233 c-13 -16 -12 -17 4 -4 16 13 21 21 13 21 -2 0 -10 -8 -17
-17z"/>
<path d="M776 3232 c-3 -5 1 -9 9 -9 8 0 12 4 9 9 -3 4 -7 8 -9 8 -2 0 -6 -4
-9 -8z"/>
<path d="M4153 3225 c0 -8 4 -12 9 -9 4 3 8 9 8 15 0 5 -4 9 -8 9 -5 0 -9 -7
-9 -15z"/>
<path d="M4190 3220 c-9 -6 -10 -10 -3 -10 6 0 15 5 18 10 8 12 4 12 -15 0z"/>
<path d="M4266 3222 c-2 -4 4 -8 14 -8 10 0 16 4 14 8 -3 4 -9 8 -14 8 -5 0
-11 -4 -14 -8z"/>
<path d="M793 3195 c0 -8 4 -12 9 -9 5 3 6 10 3 15 -9 13 -12 11 -12 -6z"/>
<path d="M4210 3200 c0 -5 9 -8 20 -7 21 1 18 10 -5 13 -8 1 -15 -2 -15 -6z"/>
<path d="M4455 3180 c-3 -5 -1 -10 4 -10 6 0 11 5 11 10 0 6 -2 10 -4 10 -3 0
-8 -4 -11 -10z"/>
<path d="M4470 3160 c-9 -6 -10 -10 -3 -10 6 0 15 5 18 10 8 12 4 12 -15 0z"/>
<path d="M835 3150 c-3 -5 -1 -10 4 -10 6 0 11 5 11 10 0 6 -2 10 -4 10 -3 0
-8 -4 -11 -10z"/>
<path d="M4550 3089 c0 -5 5 -7 10 -4 6 3 10 8 10 11 0 2 -4 4 -10 4 -5 0 -10
-5 -10 -11z"/>
<path d="M835 3071 c-3 -5 -2 -12 3 -15 5 -3 9 1 9 9 0 17 -3 19 -12 6z"/>
<path d="M4570 3044 c0 -2 9 -8 20 -14 15 -8 18 -8 14 3 -4 11 -34 21 -34 11z"/>
<path d="M855 3021 c-3 -5 -2 -12 3 -15 5 -3 9 1 9 9 0 17 -3 19 -12 6z"/>
<path d="M814 2938 c-3 -4 5 -5 17 -3 30 6 36 14 9 12 -12 -1 -24 -5 -26 -9z"/>
<path d="M4630 2880 c0 -5 5 -10 11 -10 5 0 7 5 4 10 -3 6 -8 10 -11 10 -2 0
-4 -4 -4 -10z"/>
<path d="M815 2860 c3 -5 8 -10 11 -10 2 0 4 5 4 10 0 6 -5 10 -11 10 -5 0 -7
-4 -4 -10z"/>
<path d="M833 2825 c0 -7 6 -11 14 -8 7 3 13 6 13 8 0 2 -6 5 -13 8 -8 3 -14
-1 -14 -8z"/>
<path d="M4586 2802 c-2 -4 4 -13 14 -20 13 -7 21 -8 25 -2 4 6 1 9 -7 8 -7
-2 -12 3 -10 10 2 13 -14 17 -22 4z"/>
<path d="M4565 2749 c-9 -17 -15 -33 -13 -35 3 -2 12 12 21 31 21 43 13 47 -8
4z"/>
<path d="M828 2753 c7 -3 16 -2 19 1 4 3 -2 6 -13 5 -11 0 -14 -3 -6 -6z"/>
<path d="M4595 2700 c3 -5 8 -10 11 -10 2 0 4 5 4 10 0 6 -5 10 -11 10 -5 0
-7 -4 -4 -10z"/>
<path d="M4540 2685 c-7 -9 -8 -15 -2 -15 5 0 12 7 16 15 3 8 4 15 2 15 -2 0
-9 -7 -16 -15z"/>
<path d="M800 2680 c-12 -7 -10 -9 8 -7 12 0 22 5 22 9 0 11 -12 10 -30 -2z"/>
<path d="M810 2600 c0 -5 5 -10 11 -10 5 0 7 5 4 10 -3 6 -8 10 -11 10 -2 0
-4 -4 -4 -10z"/>
<path d="M4519 2608 c-5 -18 -6 -38 -1 -34 7 8 12 36 6 36 -2 0 -4 -1 -5 -2z"/>
<path d="M796 2562 c-3 -5 1 -9 9 -9 8 0 12 4 9 9 -3 4 -7 8 -9 8 -2 0 -6 -4
-9 -8z"/>
<path d="M4480 2534 c-11 -12 -10 -18 5 -32 18 -16 18 -16 6 1 -11 14 -11 20
-1 32 7 8 10 15 7 15 -2 0 -10 -7 -17 -16z"/>
<path d="M796 2478 c3 -5 10 -6 15 -3 13 9 11 12 -6 12 -8 0 -12 -4 -9 -9z"/>
<path d="M798 2453 c7 -3 16 -2 19 1 4 3 -2 6 -13 5 -11 0 -14 -3 -6 -6z"/>
<path d="M4437 2433 c4 -10 2 -14 -4 -10 -17 10 -11 -22 7 -38 15 -14 18 -14
23 -1 4 10 1 13 -8 10 -10 -4 -12 2 -9 25 3 18 1 31 -5 31 -6 0 -7 -7 -4 -17z"/>
<path d="M4468 2438 c10 -13 10 -17 0 -21 -8 -4 -7 -6 5 -6 9 -1 17 3 17 8 0
5 -8 15 -17 22 -16 13 -17 12 -5 -3z"/>
<path d="M798 2423 c7 -3 16 -2 19 1 4 3 -2 6 -13 5 -11 0 -14 -3 -6 -6z"/>
<path d="M770 2379 c0 -5 5 -7 10 -4 6 3 10 8 10 11 0 2 -4 4 -10 4 -5 0 -10
-5 -10 -11z"/>
<path d="M815 2381 c-3 -5 -2 -12 3 -15 5 -3 9 1 9 9 0 17 -3 19 -12 6z"/>
<path d="M4475 2379 c-4 -6 -5 -12 -2 -15 2 -3 7 2 10 11 7 17 1 20 -8 4z"/>
<path d="M4516 2375 c-9 -26 -7 -32 5 -12 6 10 9 21 6 23 -2 3 -7 -2 -11 -11z"/>
<path d="M817 2343 c-9 -9 -9 -43 1 -43 4 0 7 11 7 25 0 14 0 25 -1 25 0 0 -4
-3 -7 -7z"/>
<path d="M4480 2346 c0 -2 7 -9 15 -16 13 -11 14 -10 9 4 -5 14 -24 23 -24 12z"/>
<path d="M760 2326 c0 -2 8 -10 18 -17 15 -13 16 -12 3 4 -13 16 -21 21 -21
13z"/>
<path d="M4550 2326 c0 -2 7 -7 16 -10 8 -3 12 -2 9 4 -6 10 -25 14 -25 6z"/>
<path d="M4537 2303 c-13 -12 -7 -31 11 -38 13 -5 14 -3 5 6 -6 6 -9 18 -6 25
5 15 1 18 -10 7z"/>
<path d="M770 2281 c0 -6 4 -13 10 -16 6 -3 7 1 4 9 -7 18 -14 21 -14 7z"/>
<path d="M4570 2266 c0 -3 9 -10 20 -16 11 -6 20 -8 20 -6 0 3 -9 10 -20 16
-11 6 -20 8 -20 6z"/>
<path d="M4569 2238 c7 -10 23 -17 35 -17 20 1 20 2 1 6 -11 3 -27 10 -35 17
-13 10 -13 9 -1 -6z"/>
<path d="M4630 2210 c0 -5 5 -10 11 -10 5 0 7 5 4 10 -3 6 -8 10 -11 10 -2 0
-4 -4 -4 -10z"/>
<path d="M4645 2180 c-3 -6 1 -7 9 -4 18 7 21 14 7 14 -6 0 -13 -4 -16 -10z"/>
<path d="M4680 2123 c8 -3 19 -11 23 -17 6 -7 7 -6 4 4 -2 8 -12 16 -23 17
-13 2 -15 1 -4 -4z"/>
<path d="M775 2109 c-4 -6 -5 -12 -2 -15 2 -3 7 2 10 11 7 17 1 20 -8 4z"/>
<path d="M787 2055 c3 -8 9 -12 14 -9 12 7 11 11 -5 17 -10 4 -13 1 -9 -8z"/>
<path d="M4771 2067 c2 -1 13 -9 24 -17 19 -14 19 -14 6 3 -7 9 -18 17 -24 17
-6 0 -8 -1 -6 -3z"/>
<path d="M4815 1997 c-15 -12 -16 -15 -4 -22 8 -5 10 -4 6 0 -4 5 3 15 15 22
13 7 18 12 12 13 -5 0 -18 -6 -29 -13z"/>
<path d="M735 1940 c-3 -5 -1 -10 4 -10 6 0 11 5 11 10 0 6 -2 10 -4 10 -3 0
-8 -4 -11 -10z"/>
<path d="M4910 1899 c0 -5 5 -7 10 -4 6 3 10 8 10 11 0 2 -4 4 -10 4 -5 0 -10
-5 -10 -11z"/>
<path d="M695 1860 c-3 -5 -1 -10 4 -10 6 0 11 5 11 10 0 6 -2 10 -4 10 -3 0
-8 -4 -11 -10z"/>
<path d="M721 1849 c-7 -12 -10 -23 -8 -26 3 -3 11 5 17 17 15 28 8 35 -9 9z"/>
<path d="M675 1810 c-3 -6 1 -7 9 -4 18 7 21 14 7 14 -6 0 -13 -4 -16 -10z"/>
<path d="M636 1755 c-9 -26 -7 -32 5 -12 6 10 9 21 6 23 -2 3 -7 -2 -11 -11z"/>
<path d="M4829 1723 c-13 -16 -12 -17 4 -4 16 13 21 21 13 21 -2 0 -10 -8 -17
-17z"/>
<path d="M4730 1711 c0 -9 30 -24 36 -18 2 1 -6 8 -16 15 -11 7 -20 8 -20 3z"/>
<path d="M595 1701 c-6 -11 13 -26 22 -17 4 3 1 6 -6 6 -7 0 -9 5 -6 10 3 6 4
10 1 10 -3 0 -7 -4 -11 -9z"/>
<path d="M4636 1694 c-20 -19 -20 -21 -1 -21 8 0 13 3 10 5 -3 3 0 11 6 19 16
18 4 16 -15 -3z"/>
<path d="M4795 1700 c-3 -5 -1 -10 4 -10 6 0 11 5 11 10 0 6 -2 10 -4 10 -3 0
-8 -4 -11 -10z"/>
<path d="M4553 1685 c0 -8 4 -12 9 -9 5 3 6 10 3 15 -9 13 -12 11 -12 -6z"/>
<path d="M4586 1688 c3 -5 10 -6 15 -3 13 9 11 12 -6 12 -8 0 -12 -4 -9 -9z"/>
<path d="M4671 1688 c-1 -10 3 -18 8 -18 5 0 15 8 22 18 13 15 12 16 -3 4 -13
-10 -17 -10 -21 0 -4 8 -6 7 -6 -4z"/>
<path d="M4482 1674 c-7 -8 -8 -14 -3 -14 10 0 25 19 20 25 -2 1 -10 -3 -17
-11z"/>
<path d="M4531 1674 c0 -11 3 -14 6 -6 3 7 2 16 -1 19 -3 4 -6 -2 -5 -13z"/>
<path d="M4513 1650 c1 -16 -3 -24 -11 -22 -8 1 -11 -2 -7 -9 5 -8 12 -7 22 4
12 11 13 19 4 33 -10 17 -11 16 -8 -6z"/>
<path d="M581 1651 c-8 -5 -9 -11 -3 -15 5 -3 12 1 16 9 6 17 6 18 -13 6z"/>
<path d="M4436 1641 c-4 -6 -2 -11 4 -11 6 0 9 -4 6 -8 -8 -14 12 -35 36 -38
13 -2 17 0 10 2 -6 3 -9 11 -5 17 4 7 -1 5 -11 -2 -16 -13 -17 -13 -14 5 1 10
12 24 23 31 19 11 19 12 -2 10 -13 -1 -23 -6 -23 -12 0 -5 -4 -4 -9 4 -6 9
-11 10 -15 2z"/>
<path d="M517 1613 c-10 -9 -9 -23 1 -23 5 0 9 7 9 15 0 17 -1 18 -10 8z"/>
<path d="M4533 1571 c0 -11 5 -18 9 -15 4 3 5 11 1 19 -7 21 -12 19 -10 -4z"/>
<path d="M490 1560 c0 -5 5 -10 11 -10 5 0 7 5 4 10 -3 6 -8 10 -11 10 -2 0
-4 -4 -4 -10z"/>
<path d="M4496 1555 c4 -8 8 -15 10 -15 2 0 4 7 4 15 0 8 -4 15 -10 15 -5 0
-7 -7 -4 -15z"/>
<path d="M456 1535 c-9 -26 -7 -32 5 -12 6 10 9 21 6 23 -2 3 -7 -2 -11 -11z"/>
<path d="M4526 1525 c-3 -8 -1 -15 4 -15 6 0 10 7 10 15 0 8 -2 15 -4 15 -2 0
-6 -7 -10 -15z"/>
<path d="M4220 1510 c-8 -5 -12 -12 -9 -15 4 -3 12 1 19 10 14 17 11 19 -10 5z"/>
<path d="M4236 1492 c-3 -5 1 -9 9 -9 8 0 12 4 9 9 -3 4 -7 8 -9 8 -2 0 -6 -4
-9 -8z"/>
<path d="M406 1458 c3 -5 10 -6 15 -3 13 9 11 12 -6 12 -8 0 -12 -4 -9 -9z"/>
<path d="M4046 1457 c3 -10 9 -15 12 -12 3 3 0 11 -7 18 -10 9 -11 8 -5 -6z"/>
<path d="M4275 1451 c-3 -5 -2 -12 3 -15 5 -3 9 1 9 9 0 17 -3 19 -12 6z"/>
<path d="M420 1440 c-9 -6 -10 -10 -3 -10 6 0 15 5 18 10 8 12 4 12 -15 0z"/>
<path d="M4249 1437 c6 -8 7 -18 3 -22 -4 -5 -1 -5 6 -1 10 6 10 11 1 22 -6 8
-14 14 -16 14 -3 0 0 -6 6 -13z"/>
<path d="M4295 1420 c-7 -12 -7 -12 22 -15 12 -1 20 1 17 6 -2 4 -12 5 -21 2
-11 -4 -14 -3 -9 5 4 7 5 12 2 12 -3 0 -8 -4 -11 -10z"/>
<path d="M3962 1385 c4 -4 0 -14 -10 -21 -11 -9 -13 -13 -4 -14 7 0 11 -4 8
-9 -7 -11 20 -8 31 3 4 4 4 7 -2 6 -21 -5 -27 1 -16 14 9 11 9 16 -1 22 -7 4
-10 4 -6 -1z"/>
<path d="M3990 1379 c0 -5 5 -7 10 -4 6 3 10 8 10 11 0 2 -4 4 -10 4 -5 0 -10
-5 -10 -11z"/>
<path d="M4295 1380 c3 -5 8 -10 11 -10 2 0 4 5 4 10 0 6 -5 10 -11 10 -5 0
-7 -4 -4 -10z"/>
<path d="M4363 1355 c0 -8 4 -12 9 -9 5 3 6 10 3 15 -9 13 -12 11 -12 -6z"/>
<path d="M4681 1354 c0 -11 3 -14 6 -6 3 7 2 16 -1 19 -3 4 -6 -2 -5 -13z"/>
<path d="M4716 1358 c3 -5 10 -6 15 -3 13 9 11 12 -6 12 -8 0 -12 -4 -9 -9z"/>
<path d="M4353 1314 c0 -9 4 -11 12 -4 7 5 14 9 16 7 2 -1 3 0 1 2 -7 11 -29
7 -29 -5z"/>
<path d="M313 1305 c0 -7 6 -11 14 -8 7 3 13 6 13 8 0 2 -6 5 -13 8 -8 3 -14
-1 -14 -8z"/>
<path d="M296 1263 c-6 -14 -5 -15 5 -6 7 7 10 15 7 18 -3 3 -9 -2 -12 -12z"/>
<path d="M3875 1260 c3 -5 8 -10 11 -10 2 0 4 5 4 10 0 6 -5 10 -11 10 -5 0
-7 -4 -4 -10z"/>
<path d="M4755 1261 c-3 -5 -2 -12 3 -15 5 -3 9 1 9 9 0 17 -3 19 -12 6z"/>
<path d="M4435 1250 c-3 -6 1 -7 9 -4 18 7 21 14 7 14 -6 0 -13 -4 -16 -10z"/>
<path d="M3850 1240 c0 -5 5 -10 10 -10 6 0 10 5 10 10 0 6 -4 10 -10 10 -5 0
-10 -4 -10 -10z"/>
<path d="M4440 1220 c-12 -7 -10 -9 7 -7 12 0 19 5 17 9 -6 10 -6 10 -24 -2z"/>
<path d="M4795 1221 c-3 -5 -2 -12 3 -15 5 -3 9 1 9 9 0 17 -3 19 -12 6z"/>
<path d="M917 1213 c-10 -9 -9 -23 1 -23 5 0 9 7 9 15 0 17 -1 18 -10 8z"/>
<path d="M4481 1217 c2 -1 13 -9 24 -17 19 -14 19 -14 6 3 -7 9 -18 17 -24 17
-6 0 -8 -1 -6 -3z"/>
<path d="M854 1199 c-5 -8 -3 -9 6 -4 10 6 12 4 7 -7 -4 -12 -1 -14 14 -11 11
3 18 6 17 7 -2 1 -10 7 -20 14 -12 10 -18 10 -24 1z"/>
<path d="M830 1180 c0 -5 5 -10 11 -10 5 0 7 5 4 10 -3 6 -8 10 -11 10 -2 0
-4 -4 -4 -10z"/>
<path d="M942 1185 c4 -5 2 -15 -4 -24 -7 -9 -8 -13 -3 -8 4 4 17 -1 27 -10
18 -16 18 -16 12 2 -6 14 -4 16 6 10 9 -5 11 -4 6 3 -4 7 -17 17 -29 23 -12 7
-19 8 -15 4z"/>
<path d="M3790 1181 c0 -6 4 -13 10 -16 6 -3 7 1 4 9 -7 18 -14 21 -14 7z"/>
<path d="M4473 1174 c0 -9 4 -11 12 -4 7 5 14 9 16 7 2 -1 3 0 1 2 -7 11 -29
7 -29 -5z"/>
<path d="M625 1169 c-4 -6 -4 -13 -1 -16 3 -4 6 -1 6 7 0 10 3 10 14 1 11 -9
16 -9 22 0 4 8 3 9 -4 5 -7 -4 -12 -2 -12 3 0 14 -17 14 -25 0z"/>
<path d="M695 1169 c-4 -6 -5 -12 -2 -15 2 -3 7 2 10 11 7 17 1 20 -8 4z"/>
<path d="M906 1164 c-5 -14 -4 -15 9 -4 17 14 19 20 6 20 -5 0 -12 -7 -15 -16z"/>
<path d="M235 1160 c-3 -5 -1 -10 4 -10 6 0 11 5 11 10 0 6 -2 10 -4 10 -3 0
-8 -4 -11 -10z"/>
<path d="M790 1166 c0 -2 7 -7 16 -10 8 -3 12 -2 9 4 -6 10 -25 14 -25 6z"/>
<path d="M506 1143 c-6 -14 -5 -15 5 -6 7 7 10 15 7 18 -3 3 -9 -2 -12 -12z"/>
<path d="M451 1124 c0 -11 3 -14 6 -6 3 7 2 16 -1 19 -3 4 -6 -2 -5 -13z"/>
<path d="M370 1126 c0 -2 7 -7 16 -10 8 -3 12 -2 9 4 -6 10 -25 14 -25 6z"/>
<path d="M520 1120 c-9 -6 -10 -10 -3 -10 6 0 15 5 18 10 8 12 4 12 -15 0z"/>
<path d="M4785 1100 c-3 -6 1 -7 9 -4 18 7 21 14 7 14 -6 0 -13 -4 -16 -10z"/>
<path d="M1030 1090 c0 -5 5 -10 11 -10 5 0 7 5 4 10 -3 6 -8 10 -11 10 -2 0
-4 -4 -4 -10z"/>
<path d="M3623 1085 c-4 -5 -3 -7 2 -3 4 4 14 3 20 -2 9 -7 14 -7 18 3 6 15
-32 18 -40 2z"/>
<path d="M1015 1060 c3 -5 8 -10 11 -10 2 0 4 5 4 10 0 6 -5 10 -11 10 -5 0
-7 -4 -4 -10z"/>
<path d="M3580 1060 c0 -5 5 -10 11 -10 5 0 7 5 4 10 -3 6 -8 10 -11 10 -2 0
-4 -4 -4 -10z"/>
<path d="M3615 1060 c-3 -6 1 -7 9 -4 18 7 21 14 7 14 -6 0 -13 -4 -16 -10z"/>
<path d="M3530 1036 c0 -3 9 -10 19 -16 15 -7 22 -7 27 2 4 7 4 10 -1 6 -4 -4
-16 -3 -26 3 -11 5 -19 7 -19 5z"/>
<path d="M1090 985 c0 -5 5 -17 10 -25 5 -8 10 -10 10 -5 0 6 -5 17 -10 25 -5
8 -10 11 -10 5z"/>
<path d="M1130 986 c0 -4 7 -14 15 -22 8 -9 15 -11 15 -6 0 5 -7 15 -15 22 -8
7 -15 9 -15 6z"/>
<path d="M1130 940 c0 -5 5 -10 11 -10 5 0 7 5 4 10 -3 6 -8 10 -11 10 -2 0
-4 -4 -4 -10z"/>
<path d="M3470 946 c0 -2 7 -7 16 -10 8 -3 12 -2 9 4 -6 10 -25 14 -25 6z"/>
<path d="M1186 915 c4 -8 11 -15 16 -15 6 0 5 6 -2 15 -7 8 -14 15 -16 15 -2
0 -1 -7 2 -15z"/>
<path d="M1155 911 c-3 -5 -2 -12 3 -15 5 -3 9 1 9 9 0 17 -3 19 -12 6z"/>
<path d="M1210 879 c0 -7 3 -10 6 -6 4 3 15 -4 26 -16 l20 -22 -14 24 c-17 28
-38 39 -38 20z"/>
<path d="M3335 879 c-4 -6 -5 -12 -2 -15 2 -3 7 2 10 11 7 17 1 20 -8 4z"/>
<path d="M3350 859 c0 -5 5 -7 10 -4 6 3 10 8 10 11 0 2 -4 4 -10 4 -5 0 -10
-5 -10 -11z"/>
<path d="M1210 839 c0 -5 5 -7 10 -4 6 3 10 8 10 11 0 2 -4 4 -10 4 -5 0 -10
-5 -10 -11z"/>
<path d="M3313 830 c1 -21 10 -18 13 5 1 8 -2 15 -6 15 -5 0 -8 -9 -7 -20z"/>
<path d="M1240 806 c0 -2 8 -10 18 -17 15 -13 16 -12 3 4 -13 16 -21 21 -21
13z"/>
<path d="M1284 795 c8 -8 18 -15 22 -15 3 0 1 7 -6 15 -7 8 -17 15 -22 15 -5
0 -3 -7 6 -15z"/>
<path d="M3250 800 c0 -5 5 -10 10 -10 6 0 10 5 10 10 0 6 -4 10 -10 10 -5 0
-10 -4 -10 -10z"/>
<path d="M3227 775 c3 -8 9 -12 14 -9 12 7 11 11 -5 17 -10 4 -13 1 -9 -8z"/>
<path d="M1290 746 c0 -2 7 -7 16 -10 8 -3 12 -2 9 4 -6 10 -25 14 -25 6z"/>
<path d="M1340 740 c-9 -6 -10 -10 -3 -10 6 0 15 5 18 10 8 12 4 12 -15 0z"/>
<path d="M3173 738 c-13 -6 -23 -15 -23 -20 0 -5 11 -1 25 8 37 24 35 30 -2
12z"/>
<path d="M3195 720 c-3 -6 1 -7 9 -4 18 7 21 14 7 14 -6 0 -13 -4 -16 -10z"/>
<path d="M1353 705 c0 -7 6 -11 14 -8 7 3 13 6 13 8 0 2 -6 5 -13 8 -8 3 -14
-1 -14 -8z"/>
<path d="M3130 688 c0 -6 -3 -8 -7 -5 -7 8 -63 -41 -63 -55 0 -4 13 6 29 23
16 17 33 30 38 29 4 -1 9 3 11 9 2 6 1 11 -2 11 -3 0 -6 -5 -6 -12z"/>
<path d="M1370 679 c0 -5 5 -7 10 -4 6 3 10 8 10 11 0 2 -4 4 -10 4 -5 0 -10
-5 -10 -11z"/>
<path d="M1438 613 c7 -3 16 -2 19 1 4 3 -2 6 -13 5 -11 0 -14 -3 -6 -6z"/>
<path d="M2099 593 c-8 -9 -9 -14 -3 -10 7 4 14 0 18 -8 3 -8 12 -12 21 -9 11
5 14 2 9 -12 -5 -15 -4 -16 4 -4 13 18 5 33 -14 26 -13 -5 -18 6 -15 27 2 12
-6 8 -20 -10z"/>
<path d="M3055 601 c-3 -5 -2 -12 3 -15 5 -3 9 1 9 9 0 17 -3 19 -12 6z"/>
<path d="M2042 587 c-19 -23 1 -36 23 -15 19 18 19 19 1 12 -14 -5 -17 -4 -12
4 10 16 1 15 -12 -1z"/>
<path d="M3017 593 c-10 -9 -9 -23 1 -23 5 0 9 7 9 15 0 17 -1 18 -10 8z"/>
<path d="M1450 585 c0 -5 5 -17 10 -25 5 -8 10 -10 10 -5 0 6 -5 17 -10 25 -5
8 -10 11 -10 5z"/>
<path d="M1490 583 c0 -6 7 -13 15 -17 8 -3 12 -12 9 -20 -3 -9 3 -19 18 -26
21 -10 22 -10 4 4 -10 8 -15 19 -12 24 3 5 -3 17 -14 27 -11 10 -20 13 -20 8z"/>
<path d="M2006 562 c-3 -5 1 -9 9 -9 8 0 12 4 9 9 -3 4 -7 8 -9 8 -2 0 -6 -4
-9 -8z"/>
<path d="M2079 568 c-6 -21 -5 -37 2 -32 5 3 6 10 3 16 -5 8 -1 9 10 5 10 -4
15 -3 11 3 -5 9 -24 14 -26 8z"/>
<path d="M2167 553 c-2 -5 -1 -17 3 -27 6 -19 7 -19 12 2 6 21 -6 40 -15 25z"/>
<path d="M1469 523 c-13 -16 -12 -17 4 -4 16 13 21 21 13 21 -2 0 -10 -8 -17
-17z"/>
<path d="M2986 518 c3 -5 10 -6 15 -3 13 9 11 12 -6 12 -8 0 -12 -4 -9 -9z"/>
<path d="M2195 509 c-4 -6 -5 -12 -2 -15 2 -3 7 2 10 11 7 17 1 20 -8 4z"/>
<path d="M1915 478 c-11 -24 -12 -28 -2 -16 8 10 17 15 21 11 4 -4 4 1 0 11
-6 15 -4 17 6 11 9 -5 11 -4 6 3 -11 17 -14 15 -31 -20z"/>
<path d="M1541 497 c2 -2 11 -8 20 -15 12 -9 16 -9 16 1 0 7 -9 14 -20 14 -11
1 -18 1 -16 0z"/>
<path d="M2910 481 c0 -6 4 -12 8 -15 5 -3 9 1 9 9 0 8 -4 15 -9 15 -4 0 -8
-4 -8 -9z"/>
<path d="M2215 470 c-3 -6 1 -7 9 -4 18 7 21 14 7 14 -6 0 -13 -4 -16 -10z"/>
<path d="M2886 438 c3 -5 10 -6 15 -3 13 9 11 12 -6 12 -8 0 -12 -4 -9 -9z"/>
<path d="M1593 425 c0 -8 4 -12 9 -9 5 3 6 10 3 15 -9 13 -12 11 -12 -6z"/>
<path d="M1860 420 c-8 -5 -10 -10 -5 -10 6 0 17 5 25 10 8 5 11 10 5 10 -5 0
-17 -5 -25 -10z"/>
<path d="M1636 398 c3 -5 10 -6 15 -3 13 9 11 12 -6 12 -8 0 -12 -4 -9 -9z"/>
<path d="M1787 399 c7 -7 15 -10 18 -7 3 3 -2 9 -12 12 -14 6 -15 5 -6 -5z"/>
<path d="M2776 374 c-8 -20 -8 -24 2 -24 4 0 8 9 9 20 2 24 -3 26 -11 4z"/>
<path d="M2357 370 c16 -6 21 -15 17 -27 -5 -15 -4 -16 5 -3 9 13 11 13 12 0
1 -8 1 -19 0 -23 -1 -5 3 -6 9 -2 18 11 -23 65 -49 64 -11 0 -8 -3 6 -9z"/>
<path d="M2315 361 c-3 -5 -2 -12 3 -15 5 -3 9 1 9 9 0 17 -3 19 -12 6z"/>
<path d="M2748 333 c7 -3 16 -2 19 1 4 3 -2 6 -13 5 -11 0 -14 -3 -6 -6z"/>
<path d="M2400 280 c-9 -6 -10 -10 -3 -10 6 0 15 5 18 10 8 12 4 12 -15 0z"/>
<path d="M2430 280 c0 -5 7 -7 15 -4 8 4 15 8 15 10 0 2 -7 4 -15 4 -8 0 -15
-4 -15 -10z"/>
<path d="M2699 273 c-13 -16 -12 -17 4 -4 16 13 21 21 13 21 -2 0 -10 -8 -17
-17z"/>
<path d="M2454 250 c0 -13 4 -16 10 -10 7 7 7 13 0 20 -6 6 -10 3 -10 -10z"/>
</g>
</svg>
